<?xml version="1.0" standalone="no"?>
<!DOCTYPE svg PUBLIC "-//W3C//DTD SVG 20010904//EN"
 "http://www.w3.org/TR/2001/REC-SVG-20010904/DTD/svg10.dtd">
<svg version="1.0" xmlns="http://www.w3.org/2000/svg"
 width="214.000000pt" height="214.000000pt" viewBox="0 0 214.000000 214.000000"
 preserveAspectRatio="xMidYMid meet">
<metadata>
Created by potrace 1.14, written by Peter Selinger 2001-2017
</metadata>
<g transform="translate(0.000000,214.000000) scale(0.100000,-0.100000)"
fill="#000000" stroke="none">
<path d="M892 2125 c-356 -65 -640 -284 -793 -610 -65 -138 -91 -255 -94 -421
-4 -202 28 -344 118 -518 125 -243 344 -430 607 -519 126 -43 186 -51 350 -51
193 1 299 26 465 108 305 152 518 435 579 771 22 124 14 326 -17 448 -99 379
-396 676 -772 773 -122 31 -328 40 -443 19z"/>
</g>
</svg>
